<?xml version="1.0" encoding="UTF-8" standalone="no"?>
<!DOCTYPE svg PUBLIC "-//W3C//DTD SVG 1.1//EN" "http://www.w3.org/Graphics/SVG/1.1/DTD/svg11.dtd">
<svg width="100%" height="100%" viewBox="0 0 368 490" version="1.1" xmlns="http://www.w3.org/2000/svg" xmlns:xlink="http://www.w3.org/1999/xlink" xml:space="preserve" xmlns:serif="http://www.serif.com/" style="fill-rule:evenodd;clip-rule:evenodd;stroke-linejoin:round;stroke-miterlimit:2;">
    <g transform="matrix(1,0,0,1,-522.422,-244.874)">
        <g transform="matrix(1,0,0,1,-172.028,4.46349)">
            <path d="M782.404,409.814L808.68,409.814L809.364,508.505L828.083,409.653L880.728,409.866C880.728,409.866 888.002,416.292 898.698,418.84L898.698,441.65C898.698,441.65 897.304,470.324 921.83,482.743C921.83,482.743 939.555,492.409 960.279,483.513C960.279,483.513 967.197,481.469 975.078,473.611L975.078,661.485C975.078,661.485 974.992,678.489 961.925,678.489L796.97,678.489C796.97,678.489 781.747,677.274 782.168,663.566L782.168,423.868L782.404,409.814Z" style="fill:rgb(255,186,8);"/>
            <path d="M741.535,729.623C724.314,729.623 725.437,716.099 725.437,716.099C724.127,707.947 728.712,702.239 728.712,702.239L741.26,684.105L741.26,631.871L741.589,631.871L741.456,623.827L741.456,390.2C741.456,390.2 691.71,379.38 694.569,334.593C697.532,288.193 733.857,282.57 749.464,280.923C749.464,280.923 770.374,244.727 814.479,259.828C814.479,259.828 822.177,252.676 836.711,254.55C836.711,254.55 882.063,216.445 921.398,265.345C921.398,265.345 929.518,264.538 932.985,266.496C932.985,266.496 985.588,221.144 1023.99,291.182C1023.99,291.182 1064.19,309.424 1061.79,352.86C1060.55,375.408 1041.14,399.5 1015.09,407.966L1015.09,684.105L1027.63,702.239C1027.63,702.239 1032.22,707.947 1030.91,716.099C1030.91,716.099 1032.03,729.623 1014.81,729.623L741.535,729.623ZM977.158,420.466C977.158,420.466 984.058,419.341 988.177,416.913L988.177,658.873C988.177,658.873 990.726,691.518 963.275,691.077L794.445,691.077C794.445,691.077 769.548,689.381 769.473,664.442L769.473,386.791C769.473,386.791 788.452,381.855 795.846,365.674C795.846,365.674 816.501,367.212 830.396,352.54C830.396,352.54 842.951,353.263 847.806,352.013C847.806,352.013 855.41,358.277 867.96,358.203C867.96,358.203 864.212,401.705 909.929,412.721L909.929,442.75C909.929,442.75 909.823,465.36 928.766,472.534C928.766,472.534 941.8,480.305 961.541,471.264C961.541,471.264 975.426,463.761 977.083,447.112L977.158,420.466ZM944.189,285.574C944.189,285.574 979.17,254.329 1002.22,296.531C1002.22,296.531 985.592,301.892 979.293,314.442C979.293,314.442 1020.01,294.865 1036.38,334.239C1048.08,362.382 1025.19,390.729 998.291,388.762C998.291,388.762 1000.98,376.837 995.301,367.909C995.301,367.909 996.148,405.48 955.41,399.614L955.41,444.219C955.41,444.219 954.679,454.13 943.741,454.13C932.804,454.13 931.934,446.142 931.934,446.142L931.632,389.641C931.632,389.641 909.389,398.824 895.349,377.596C881.309,356.368 895.527,341.132 895.527,341.132L890.19,333.004C890.19,333.004 869.513,343.286 850.522,327.998C850.522,327.998 837.176,335.696 824.077,326.923C824.077,326.923 810.115,351.944 782.19,341.209C782.19,341.209 777.756,361.13 760.881,367.344C760.881,367.344 733.389,376.287 720.427,349.545C720.427,349.545 711.3,328.143 727.063,311.977C727.063,311.977 737.196,301.546 753.098,303.437C753.098,303.437 754.879,319.168 766.777,326.47C766.777,326.47 754.17,302.386 774.55,285.353C774.55,285.353 790.182,272.244 810.708,281.75C810.708,281.75 804.26,290.844 810.031,303.765C810.031,303.765 811.04,279.908 830.507,276.877C830.507,276.877 853.295,271.276 862.424,290.401C862.424,290.401 863.867,276.272 850.701,270.584C850.701,270.584 862.62,258.74 883.495,263.247C883.495,263.247 902.386,268.166 905.935,280.489C905.935,280.489 896.042,284.923 895.32,298.499C895.32,298.499 907.488,282.415 927.983,286.813C927.983,286.813 944.131,289.525 950.88,304.127C950.88,304.127 951.965,293.083 944.189,285.574Z" style="fill:white;"/>
            <g transform="matrix(1,0,0,1,0,11)">
                <circle cx="952.183" cy="491.967" r="2.541" style="fill:rgb(247,253,245);"/>
            </g>
            <g transform="matrix(1,0,0,1,0,11)">
                <circle cx="950.584" cy="512.64" r="7.249" style="fill:rgb(247,253,245);"/>
            </g>
            <g transform="matrix(1,0,0,1,0,11)">
                <circle cx="931.14" cy="501.655" r="7.998" style="fill:rgb(247,253,245);"/>
            </g>
            <g transform="matrix(1,0,0,1,0,11)">
                <circle cx="909.792" cy="505.367" r="2.887" style="fill:rgb(247,253,245);"/>
            </g>
            <g transform="matrix(1,0,0,1,0,11)">
                <circle cx="922.648" cy="519.795" r="6.294" style="fill:rgb(247,253,245);"/>
            </g>
            <g transform="matrix(1,0,0,1,0,11)">
                <circle cx="938.046" cy="527.449" r="4.412" style="fill:rgb(247,253,245);"/>
            </g>
            <g transform="matrix(1,0,0,1,0,8)">
                <circle cx="942.837" cy="544.246" r="2.31" style="fill:rgb(247,253,245);"/>
            </g>
            <g transform="matrix(1,0,0,1,0,8)">
                <circle cx="927.765" cy="544.229" r="3.638" style="fill:rgb(247,253,245);"/>
            </g>
            <g transform="matrix(1,0,0,1,0,5)">
                <circle cx="935.945" cy="559.939" r="5.139" style="fill:rgb(247,253,245);"/>
            </g>
            <g transform="matrix(1,0,0,1,0,2)">
                <circle cx="915.521" cy="577.107" r="8.599" style="fill:rgb(247,253,245);"/>
            </g>
            <g transform="matrix(1,0,0,1,0,2)">
                <circle cx="933.731" cy="577.712" r="3.417" style="fill:rgb(247,253,245);"/>
            </g>
            <g transform="matrix(1,0,0,1,0,2)">
                <circle cx="946.371" cy="577.582" r="2.312" style="fill:rgb(247,253,245);"/>
            </g>
            <g transform="matrix(1,0,0,1,0,2)">
                <circle cx="960.852" cy="579.829" r="2.369" style="fill:rgb(247,253,245);"/>
            </g>
            <circle cx="932.059" cy="596.617" r="4.227" style="fill:rgb(247,253,245);"/>
            <circle cx="945.651" cy="607.65" r="5.524" style="fill:rgb(247,253,245);"/>
            <circle cx="915.696" cy="604.307" r="5.53" style="fill:rgb(247,253,245);"/>
            <circle cx="927.918" cy="635.661" r="3.729" style="fill:rgb(247,253,245);"/>
            <g transform="matrix(1,0,0,1,0,11)">
                <circle cx="914.453" cy="486.15" r="7.108" style="fill:rgb(247,253,245);"/>
            </g>
            <g transform="matrix(1,0,0,1,0,16)">
                <circle cx="932.378" cy="481.383" r="3.58" style="fill:rgb(247,253,245);"/>
            </g>
        </g>
    </g>
</svg>
